<svg xmlns="http://www.w3.org/2000/svg" xmlns:xlink="http://www.w3.org/1999/xlink" width="500" zoomAndPan="magnify" viewBox="0 0 375 374.999991" height="500" preserveAspectRatio="xMidYMid meet" version="1.0"><defs><g/><clipPath id="72c2552e7a"><path d="M 57.351562 172.328125 L 316.363281 172.328125 L 316.363281 202.378906 L 57.351562 202.378906 Z M 57.351562 172.328125 " clip-rule="nonzero"/></clipPath></defs><rect x="-37.5" width="450" fill="#ffffff" y="-37.499999" height="449.999989" fill-opacity="1"/><rect x="-37.5" width="450" fill="#fa5616" y="-37.499999" height="449.999989" fill-opacity="1"/><g fill="#0021a5" fill-opacity="1"><g transform="translate(183.288095, 242.722733)"><g><path d="M 90.3125 -7.359375 C 89.96875 -8.492188 89.707031 -10.085938 89.53125 -12.140625 C 89.363281 -14.191406 89.25 -16.414062 89.1875 -18.8125 C 89.132812 -21.207031 89.078125 -23.660156 89.015625 -26.171875 C 88.960938 -28.679688 88.769531 -31.078125 88.4375 -33.359375 C 87.75 -37.921875 86.601562 -41.679688 85 -44.640625 C 83.40625 -47.609375 81.46875 -50.03125 79.1875 -51.90625 C 76.914062 -53.789062 74.296875 -55.273438 71.328125 -56.359375 C 68.359375 -57.441406 65.164062 -58.441406 61.75 -59.359375 C 70.644531 -60.953125 77.484375 -64.113281 82.265625 -68.84375 C 87.054688 -73.570312 89.453125 -79.53125 89.453125 -86.71875 C 89.453125 -91.164062 88.507812 -95.15625 86.625 -98.6875 C 84.75 -102.226562 82.210938 -105.195312 79.015625 -107.59375 C 75.828125 -109.988281 72.035156 -111.8125 67.640625 -113.0625 C 63.253906 -114.3125 58.609375 -114.9375 53.703125 -114.9375 L 5.46875 -114.9375 L 5.46875 -112.203125 L 20.1875 -112.203125 L 20.1875 -2.734375 L 5.46875 -2.734375 L 5.46875 0 L 51.484375 0 L 51.484375 -2.734375 L 36.78125 -2.734375 L 36.78125 -58.671875 L 50.96875 -58.671875 C 52.789062 -58.671875 54.726562 -58.351562 56.78125 -57.71875 C 58.832031 -57.09375 60.742188 -55.894531 62.515625 -54.125 C 64.285156 -52.363281 65.828125 -49.914062 67.140625 -46.78125 C 68.453125 -43.644531 69.390625 -39.625 69.953125 -34.71875 C 70.296875 -31.757812 70.492188 -28.738281 70.546875 -25.65625 C 70.609375 -22.570312 70.78125 -19.601562 71.0625 -16.75 C 71.351562 -13.90625 71.867188 -11.285156 72.609375 -8.890625 C 73.347656 -6.492188 74.515625 -4.441406 76.109375 -2.734375 C 77.597656 -1.140625 79.335938 -0.0546875 81.328125 0.515625 C 83.328125 1.085938 85.46875 1.375 87.75 1.375 C 89.6875 1.375 91.625 1.171875 93.5625 0.765625 C 95.5 0.367188 97.296875 -0.113281 98.953125 -0.6875 C 100.609375 -1.257812 102.03125 -1.859375 103.21875 -2.484375 C 104.414062 -3.109375 105.300781 -3.707031 105.875 -4.28125 C 106.21875 -4.625 106.390625 -4.960938 106.390625 -5.296875 C 106.390625 -5.640625 106.21875 -5.8125 105.875 -5.8125 C 105.644531 -5.8125 105.304688 -5.695312 104.859375 -5.46875 C 102.578125 -3.875 100.007812 -3.078125 97.15625 -3.078125 C 93.625 -3.078125 91.34375 -4.503906 90.3125 -7.359375 Z M 36.78125 -61.40625 L 36.78125 -112.203125 L 53.703125 -112.203125 C 66.703125 -112.203125 73.203125 -104.734375 73.203125 -89.796875 L 73.203125 -83.640625 C 73.203125 -68.816406 66.703125 -61.40625 53.703125 -61.40625 Z M 36.78125 -61.40625 "/></g></g></g><g fill="#0021a5" fill-opacity="1"><g transform="translate(73.548126, 245.249984)"><g><path d="M 4.6875 -2.78125 L 4.6875 0 L 37.359375 0 L 37.359375 -2.78125 L 22.40625 -2.78125 L 22.40625 -108.9375 L 89.65625 1.390625 L 95.5625 1.390625 L 95.5625 -113.984375 L 110.5 -113.984375 L 110.5 -116.765625 L 77.84375 -116.765625 L 77.84375 -113.984375 L 92.78125 -113.984375 L 92.78125 -28.671875 L 38.921875 -116.765625 L 4.6875 -116.765625 L 4.6875 -113.984375 L 19.640625 -113.984375 L 19.640625 -2.78125 Z M 4.6875 -2.78125 "/></g></g></g><g clip-path="url(#72c2552e7a)"><path fill="#fa5616" d="M 57.351562 172.328125 L 316.421875 172.328125 L 316.421875 202.378906 L 57.351562 202.378906 Z M 57.351562 172.328125 " fill-opacity="1" fill-rule="nonzero"/></g><g fill="#0021a5" fill-opacity="1"><g transform="translate(109.456073, 197.038492)"><g><path d="M 14.109375 -13.609375 L 14.109375 0 L 11.515625 0 L 4.734375 -8.265625 L 4.734375 0 L 1.609375 0 L 1.609375 -13.609375 L 4.21875 -13.609375 L 10.984375 -5.34375 L 10.984375 -13.609375 Z M 14.109375 -13.609375 "/></g></g></g><g fill="#0021a5" fill-opacity="1"><g transform="translate(131.893562, 197.038492)"><g><path d="M 1.609375 -13.609375 L 4.765625 -13.609375 L 4.765625 0 L 1.609375 0 Z M 1.609375 -13.609375 "/></g></g></g><g fill="#0021a5" fill-opacity="1"><g transform="translate(144.999194, 197.038492)"><g><path d="M 4.4375 -11.046875 L 0.078125 -11.046875 L 0.078125 -13.609375 L 11.9375 -13.609375 L 11.9375 -11.046875 L 7.59375 -11.046875 L 7.59375 0 L 4.4375 0 Z M 4.4375 -11.046875 "/></g></g></g><g fill="#0021a5" fill-opacity="1"><g transform="translate(163.742813, 197.038492)"><g><path d="M 1.609375 -13.609375 L 4.765625 -13.609375 L 4.765625 0 L 1.609375 0 Z M 1.609375 -13.609375 "/></g></g></g><g fill="#0021a5" fill-opacity="1"><g transform="translate(176.848448, 197.038492)"><g><path d="M 14.109375 -13.609375 L 14.109375 0 L 11.515625 0 L 4.734375 -8.265625 L 4.734375 0 L 1.609375 0 L 1.609375 -13.609375 L 4.21875 -13.609375 L 10.984375 -5.34375 L 10.984375 -13.609375 Z M 14.109375 -13.609375 "/></g></g></g><g fill="#0021a5" fill-opacity="1"><g transform="translate(199.285939, 197.038492)"><g/></g></g><g fill="#0021a5" fill-opacity="1"><g transform="translate(211.516708, 197.038492)"><g><path d="M 10.296875 0 L 7.671875 -3.796875 L 4.765625 -3.796875 L 4.765625 0 L 1.609375 0 L 1.609375 -13.609375 L 7.515625 -13.609375 C 8.710938 -13.609375 9.753906 -13.40625 10.640625 -13 C 11.535156 -12.601562 12.222656 -12.035156 12.703125 -11.296875 C 13.179688 -10.554688 13.421875 -9.679688 13.421875 -8.671875 C 13.421875 -7.660156 13.175781 -6.785156 12.6875 -6.046875 C 12.207031 -5.316406 11.519531 -4.757812 10.625 -4.375 L 13.671875 0 Z M 10.234375 -8.671875 C 10.234375 -9.441406 9.984375 -10.03125 9.484375 -10.4375 C 8.992188 -10.84375 8.273438 -11.046875 7.328125 -11.046875 L 4.765625 -11.046875 L 4.765625 -6.296875 L 7.328125 -6.296875 C 8.273438 -6.296875 8.992188 -6.503906 9.484375 -6.921875 C 9.984375 -7.335938 10.234375 -7.921875 10.234375 -8.671875 Z M 10.234375 -8.671875 "/></g></g></g><g fill="#0021a5" fill-opacity="1"><g transform="translate(232.534972, 197.038492)"><g><path d="M 10.578125 -2.921875 L 4.265625 -2.921875 L 3.046875 0 L -0.171875 0 L 5.890625 -13.609375 L 9 -13.609375 L 15.09375 0 L 11.78125 0 Z M 9.59375 -5.3125 L 7.4375 -10.53125 L 5.265625 -5.3125 Z M 9.59375 -5.3125 "/></g></g></g><g fill="#0021a5" fill-opacity="1"><g transform="translate(254.155915, 197.038492)"><g><path d="M 1.609375 -13.609375 L 4.765625 -13.609375 L 4.765625 0 L 1.609375 0 Z M 1.609375 -13.609375 "/></g></g></g></svg>